<?xml version="1.0" encoding="UTF-8"?>
<svg version="1.1" xmlns="http://www.w3.org/2000/svg" width="512" height="512">
<path d="M0 0 C168.96 0 337.92 0 512 0 C512 168.96 512 337.92 512 512 C343.04 512 174.08 512 0 512 C0 343.04 0 174.08 0 0 Z " fill="#FEFEFE" transform="translate(0,0)"/>
<path d="M0 0 C132.33 0 264.66 0 401 0 C401.0825 36.733125 401.165 73.46625 401.25 111.3125 C401.28641602 122.90673096 401.32283203 134.50096191 401.36035156 146.4465332 C401.37841797 160.61560059 401.37841797 160.61560059 401.3817749 167.25090027 C401.3854982 171.88049503 401.40047497 176.50990591 401.42230225 181.13945007 C401.44980186 187.050681 401.45795294 192.96164574 401.4522891 198.8729347 C401.45347291 201.03863814 401.46136741 203.20435118 401.47686052 205.36999953 C401.5743621 219.66676608 401.46918438 231.30080731 391.0078125 242.12890625 C382.32119405 250.22402345 373.89903269 251.45338653 362.5 251.1875 C361.39140625 251.17396484 360.2828125 251.16042969 359.140625 251.14648438 C356.42656768 251.11138881 353.71354807 251.0622227 351 251 C351.00867316 250.16182676 351.01734632 249.32365353 351.02628231 248.4600811 C351.23353962 227.92038804 351.35540471 207.38166802 351.38603115 186.84092522 C351.40283266 176.9067272 351.44692917 166.97414712 351.55883789 157.04052734 C351.65648075 148.36672804 351.69929333 139.69454584 351.68036038 131.02019131 C351.67217114 126.44033245 351.68863752 121.86401393 351.77114677 117.28481674 C352.18160762 93.30169629 349.13020431 75.91275669 336.35023594 55.35127449 C335 53 335 53 335 51 C334.34 51 333.68 51 333 51 C332.89494141 51.69834961 332.78988281 52.39669922 332.68164062 53.11621094 C331.89816804 56.43081629 330.62761905 59.09978061 329.09375 62.140625 C328.51496094 63.29304688 327.93617188 64.44546875 327.33984375 65.6328125 C327.03804199 66.22610352 326.73624023 66.81939453 326.42529297 67.43066406 C325.49727747 69.25535311 324.57800658 71.08424236 323.66015625 72.9140625 C319.15408872 81.84591128 319.15408872 81.84591128 318 83 C317.89075727 85.16394766 317.85307478 87.33151028 317.84178162 89.4981842 C317.83437465 90.52852104 317.83437465 90.52852104 317.82681805 91.57967275 C317.81137013 93.89824607 317.80306283 96.21679154 317.79467773 98.53540039 C317.78510493 100.19070178 317.77509521 101.8460007 317.76467896 103.501297 C317.73755903 108.00934269 317.71658797 112.51739894 317.69667697 117.02548146 C317.67486098 121.73139843 317.6474509 126.43728264 317.62062073 131.14317322 C317.57063433 140.06086259 317.52571764 148.97857008 317.48259836 157.89629501 C317.42406234 169.94228913 317.35774365 181.98824021 317.29184818 194.0341959 C317.1881805 213.02276829 317.09495321 232.0113774 317 251 C292.25 251 267.5 251 242 251 C241.59891191 227.57199881 241.59891191 227.57199881 241.51171875 217.57226562 C241.4519746 210.75286904 241.38136607 203.93481716 241.24560547 197.11645508 C241.13681215 191.61796433 241.07713049 186.12091543 241.05122757 180.62143135 C241.03277356 178.52529764 240.99673379 176.42924147 240.94269943 174.33372307 C240.53553388 157.88666713 240.53553388 157.88666713 244.14556885 153.23587036 C246.7065128 151.43088757 249.13041368 150.23213963 252 149 C260.76167437 142.53646305 266.599447 133.86790672 271 124 C271.391875 123.154375 271.78375 122.30875 272.1875 121.4375 C276.91433487 107.25699538 275.22138798 89.52212836 268.71484375 76.41015625 C263.20143132 66.44301233 255.75327839 58.79712932 246 53 C245.01 52.34 244.02 51.68 243 51 C242.99635437 51.69411484 242.99270874 52.38822968 242.98895264 53.1033783 C242.95091804 59.67896142 242.89389222 66.25408251 242.81609726 72.82932186 C242.77676641 76.20890542 242.74450844 79.58823407 242.72900391 82.96801758 C242.70749536 86.86321532 242.66080032 90.75743984 242.609375 94.65234375 C242.60814636 95.8526976 242.60691772 97.05305145 242.60565186 98.28977966 C242.43450364 108.18879835 240.1823824 115.98085356 233 123 C225.22924426 127.7538741 217.71813274 129.31956909 208.75 127.25 C201.30889304 123.86767865 195.78024412 118.95028881 192.6199646 111.271698 C191.23451908 106.19509552 191.51537381 100.85478109 191.48828125 95.62890625 C191.47033005 94.35144028 191.45237885 93.0739743 191.43388367 91.75779724 C191.38903368 88.38271669 191.35665943 85.00799468 191.33044434 81.63275146 C191.30051833 78.18016585 191.25402982 74.72780622 191.20898438 71.27539062 C191.12414275 64.5170319 191.055757 57.7586579 191 51 C189.26122764 52.07705026 187.52630424 53.16031539 185.79296875 54.24609375 C184.82641357 54.8486499 183.8598584 55.45120605 182.86401367 56.07202148 C170.89793477 64.12727041 163.36691432 76.97523897 159.62109375 90.7265625 C156.6225993 106.52994837 160.0871109 122.71703155 169 136 C174.3562998 142.96905431 181.23996776 150.72616687 189.59831238 154.02571106 C192 156 192 156 192.45284462 157.78868675 C192.61890312 160.22611419 192.61766673 162.61853916 192.56762695 165.0612793 C192.56872215 166.45182022 192.56872215 166.45182022 192.56983948 167.87045288 C192.56635204 170.93896715 192.52743584 174.00596923 192.48828125 177.07421875 C192.47895725 179.1998461 192.47183919 181.32548418 192.46684265 183.4511261 C192.44774048 189.04918012 192.39861137 194.64658676 192.34332275 200.24438477 C192.2832137 206.95898306 192.26022943 213.67379768 192.23105621 220.38858795 C192.18254896 230.59284239 192.08675507 240.79567605 192 251 C161.64 251 131.28 251 100 251 C99.39836786 226.74753996 99.39836786 226.74753996 99.26757812 216.20703125 C99.17876247 209.08369084 99.07511153 201.96330802 98.8684082 194.84228516 C97.51038488 146.84751311 97.51038488 146.84751311 111.84936523 124.58251953 C114.60624614 120.1660933 115.81483195 117.5158072 114.67668152 112.39126587 C114.34172417 111.20758926 114.34172417 111.20758926 114 110 C113.6724749 108.54042374 113.6724749 108.54042374 113.33833313 107.05136108 C112.55874228 103.60525352 111.70578595 100.18320183 110.83984375 96.7578125 C110.36730716 94.85543562 109.89477413 92.95305784 109.42245579 91.05062675 C108.76562116 88.41082208 108.10360454 85.77232888 107.44146729 83.1338501 C106.27669741 78.49099301 105.11640107 73.84702771 103.96180725 69.20162964 C103.3477781 66.73338105 102.73023838 64.26600264 102.10887146 61.79959106 C101.69327721 60.1317305 101.69327721 60.1317305 101.26928711 58.43017578 C101.02359482 57.45138458 100.77790253 56.47259338 100.52476501 55.46414185 C100 53 100 53 100 50 C88.78 50 77.56 50 66 50 C65.45859375 52.50207031 64.9171875 55.00414062 64.359375 57.58203125 C62.77141559 64.80154532 61.03273734 71.9748488 59.203125 79.13671875 C58.96251343 80.08104767 58.72190186 81.02537659 58.47399902 81.99832153 C57.48133739 85.88756389 56.48596241 89.77604468 55.47998047 93.66186523 C54.7343751 96.54745794 53.99923825 99.43555755 53.265625 102.32421875 C53.03756165 103.19406906 52.80949829 104.06391937 52.57452393 104.96012878 C52.36720642 105.7824147 52.15988892 106.60470062 51.94628906 107.4519043 C51.76294006 108.1637236 51.57959106 108.87554291 51.39068604 109.6089325 C50.40279697 115.65498799 50.69981444 119.34972808 54.24829102 124.38720703 C69.18858983 147.83999518 67.81510512 171.29494338 67.02996826 198.34326172 C66.87408635 204.29702458 66.80750695 210.25179861 66.73242188 216.20703125 C66.57349263 227.80727161 66.31891324 239.40312861 66 251 C60.34412654 251.09958872 54.68877422 251.17180596 49.03222656 251.21972656 C47.11188861 251.23972336 45.19161061 251.26693006 43.27148438 251.30175781 C29.24270158 251.5496677 18.65651673 251.33183442 7.98046875 241.22265625 C3.0401492 235.67819506 -0.12719858 229.4662307 -0.12304783 221.97828293 C-0.1250387 221.1828231 -0.12702957 220.38736328 -0.12908077 219.56779861 C-0.12616811 218.70034389 -0.12325544 217.83288918 -0.12025452 216.93914795 C-0.12111053 216.01508148 -0.12196655 215.09101501 -0.12284851 214.13894653 C-0.12450663 211.02587978 -0.11897528 207.91286655 -0.11352539 204.79980469 C-0.11321914 202.53653592 -0.11335241 200.27326705 -0.11389065 198.00999832 C-0.11411675 191.93965102 -0.10831365 185.86932337 -0.10128021 179.79898071 C-0.09559255 174.10638364 -0.09531749 168.41379138 -0.09460449 162.72119141 C-0.08935357 146.06412499 -0.07539246 129.40706225 -0.0625 112.75 C-0.041875 75.5425 -0.02125 38.335 0 0 Z " fill="#0068B3" transform="translate(52,202)"/>
<path d="M0 0 C1.00212021 -0.00997513 2.00424042 -0.01995026 3.03672791 -0.03022766 C4.1251297 -0.03089233 5.21353149 -0.03155701 6.33491516 -0.03224182 C7.49001083 -0.04056534 8.64510651 -0.04888885 9.83520508 -0.0574646 C13.65586211 -0.08156939 17.47634834 -0.09033819 21.29707336 -0.09693909 C23.28406541 -0.10363913 25.27105746 -0.11034149 27.25804836 -0.117374 C33.50796147 -0.13882905 39.75782034 -0.14817697 46.00776672 -0.15138245 C52.43522182 -0.15501209 58.86219777 -0.18486935 65.28950661 -0.22678703 C70.82264307 -0.26159598 76.35562163 -0.27693274 81.88886672 -0.27762848 C85.18692937 -0.27841801 88.48439644 -0.28940656 91.78236961 -0.31562614 C95.46827283 -0.34259292 99.15286869 -0.33769722 102.83882141 -0.32521057 C103.91710205 -0.34004486 104.99538269 -0.35487915 106.1063385 -0.37016296 C114.96363985 -0.2850637 120.90833247 2.58048591 128.16035461 7.46165466 C135.16750159 14.62805498 139.13883888 23.03210405 139.13694763 33.05256653 C139.12662506 33.89654999 139.11630249 34.74053345 139.10566711 35.61009216 C139.10142227 36.92912033 139.10142227 36.92912033 139.09709167 38.27479553 C139.08595173 41.0663906 139.06085872 43.85765757 139.03535461 46.64915466 C139.02531681 48.54888959 139.01619236 50.44862958 139.00801086 52.34837341 C138.98603267 56.99042573 138.95154571 61.63223468 138.91035461 66.27415466 C140.01123413 66.26305161 141.11211365 66.25194855 142.24635315 66.24050903 C152.66155326 66.13879948 163.07665156 66.06402988 173.49223709 66.0150938 C178.84601418 65.98908868 184.19938779 65.95385765 189.55293274 65.8969574 C194.72714408 65.84231234 199.90096927 65.81266593 205.07544708 65.79976845 C207.04168011 65.7905866 209.00789391 65.77265756 210.97396088 65.74550438 C224.95350953 65.56025245 236.66166818 66.30711945 247.29707336 76.52415466 C258.41768158 88.5871873 255.91035461 100.5489806 255.91035461 117.27415466 C123.25035461 117.27415466 -9.40964539 117.27415466 -146.08964539 117.27415466 C-146.08964539 85.607488 -146.08964539 85.607488 -136.08964539 75.27415466 C-127.96817328 68.51647693 -119.359934 65.79250265 -108.897995 65.93357849 C-108.02861298 65.93314041 -107.15923096 65.93270233 -106.26350403 65.93225098 C-103.42276133 65.93432182 -100.58262725 65.95757144 -97.74198914 65.98118591 C-95.75945355 65.98678794 -93.77691379 65.99105517 -91.79437256 65.99404907 C-86.60101153 66.00545004 -81.40790611 66.034876 -76.21464539 66.06816101 C-70.90543575 66.09896467 -65.59618443 66.11257634 -60.28691101 66.12767029 C-49.88771077 66.15975053 -39.48869942 66.21088897 -29.08964539 66.27415466 C-29.12106628 64.58842346 -29.12106628 64.58842346 -29.15312195 62.86863708 C-29.22618049 58.65115889 -29.27168157 54.43373521 -29.30937195 50.21580505 C-29.32933882 48.39930274 -29.35652225 46.58286345 -29.3914032 44.7665863 C-29.84837164 20.33893479 -29.84837164 20.33893479 -20.71464539 10.83665466 C-14.8160878 4.73503198 -8.82321073 0.04730919 0 0 Z " fill="#015089" transform="translate(197.0896453857422,51.72584533691406)"/>
<path d="M0 0 C33 0 66 0 100 0 C100 10.89 100 21.78 100 33 C67 33 34 33 0 33 C0 22.11 0 11.22 0 0 Z " fill="#FEFEFF" transform="translate(202,85)"/>
<path d="M0 0 C6.44250893 4.80718724 8.17587616 8.25007877 11 16 C11 24.58 11 33.16 11 42 C-121.33 42 -253.66 42 -390 42 C-390 39.69 -390 37.38 -390 35 C-259.98 35 -129.96 35 4 35 C4.12869387 12.25547362 4.12869387 12.25547362 0 0 Z " fill="#8FB2CC" transform="translate(449,134)"/>
<path d="M0 0 C0.66 0 1.32 0 2 0 C2.89690912 1.55002751 3.7668197 3.11569918 4.625 4.6875 C5.11226563 5.55761719 5.59953125 6.42773438 6.1015625 7.32421875 C7 10 7 10 6.390625 12.3125 C5.93171875 13.199375 5.4728125 14.08625 5 15 C4.39475558 16.30689489 3.79355884 17.61566814 3.1953125 18.92578125 C2.50671122 20.38872918 1.81656794 21.85095214 1.125 23.3125 C0.61646484 24.3943457 0.61646484 24.3943457 0.09765625 25.49804688 C-1.48349141 28.84971919 -3.01113182 32.01711926 -5.03817749 35.13444519 C-8.28643331 41.69310181 -7.57099022 49.09388107 -7.54589844 56.23828125 C-7.55464169 57.88477044 -7.56513009 59.53125114 -7.57722473 61.17771912 C-7.60501341 65.62965076 -7.608491 70.08130417 -7.60750484 74.53330994 C-7.61064009 79.19251694 -7.63627103 83.85159976 -7.65948486 88.51074219 C-7.70000158 97.32550841 -7.7203754 106.14020073 -7.73345876 114.9550457 C-7.75231568 126.87216445 -7.80239715 138.7891497 -7.85070229 150.70617867 C-7.92594287 169.47077883 -7.95955866 188.23521784 -8 207 C-32.75 207 -57.5 207 -83 207 C-83 204.69 -83 202.38 -83 200 C-60.89 200 -38.78 200 -16 200 C-16.05236816 195.01028076 -16.10473633 190.02056152 -16.15869141 184.87963867 C-16.32482182 168.34364028 -16.43553032 151.80760779 -16.51812172 135.27099133 C-16.5695078 125.25045672 -16.63946075 115.23071727 -16.75439453 105.21069336 C-16.85461842 96.46886231 -16.91871122 87.72760756 -16.94088495 78.98521787 C-16.95383071 74.36334732 -16.9838662 69.74312419 -17.05730057 65.12178612 C-17.60909477 29.01016931 -17.60909477 29.01016931 -7.21537399 14.78130531 C-5.18453051 11.80481223 -3.83108599 8.60368123 -2.375 5.3125 C-1.90835938 4.27738281 -1.44171875 3.24226563 -0.9609375 2.17578125 C-0.48527344 1.09876953 -0.48527344 1.09876953 0 0 Z " fill="#B8CEDE" transform="translate(385,253)"/>
<path d="M0 0 C11.22 0 22.44 0 34 0 C34.99 4.455 34.99 4.455 36 9 C26.76 9 17.52 9 8 9 C5.86308621 17.38458771 3.73918525 25.77217961 1.6379528 34.16578197 C0.66172831 38.06322401 -0.32010804 41.95906923 -1.31494141 45.85180664 C-2.27496193 49.60919183 -3.22001412 53.37005442 -4.15484238 57.13378334 C-4.51394917 58.5684198 -4.87841244 60.00172651 -5.24832535 61.43361473 C-5.76593456 63.44100085 -6.26421913 65.45229008 -6.75830078 67.46557617 C-7.04698029 68.60919113 -7.33565979 69.75280609 -7.63308716 70.93107605 C-8.27614352 76.30971331 -5.76063234 79.51174449 -2.77294922 83.77636719 C11.56560844 106.28161707 9.66600874 129.90001185 8.96130371 155.74237061 C8.81597022 161.64913899 8.75370481 167.5567886 8.68359375 173.46484375 C8.53513867 184.97882405 8.29743494 196.48896916 8 208 C2.05932083 208.12441814 -3.88058531 208.21472356 -9.82226562 208.2746582 C-11.83965278 208.2996658 -13.85695059 208.3336834 -15.87402344 208.37719727 C-37.36160916 208.82884039 -37.36160916 208.82884039 -45 203 C-46.546875 201.8553125 -46.546875 201.8553125 -48.125 200.6875 C-48.74375 200.130625 -49.3625 199.57375 -50 199 C-49.505 198.01 -49.505 198.01 -49 197 C-47.88109375 197.4844458 -46.7621875 197.9688916 -45.609375 198.46801758 C-40.78884439 200.26811173 -36.35503658 200.47358962 -31.25 200.51171875 C-30.35128174 200.52966995 -29.45256348 200.54762115 -28.52661133 200.56611633 C-25.68445386 200.61986305 -22.84246083 200.65399974 -20 200.6875 C-18.06117521 200.7207046 -16.12237202 200.75519713 -14.18359375 200.79101562 C-9.45584853 200.87556866 -4.72814906 200.94254867 0 201 C0.21928195 188.21894956 0.35334371 175.43988348 0.38603115 162.65691948 C0.40373905 156.71740066 0.44805913 150.78085504 0.55883789 144.84228516 C1.04607969 117.67179021 1.41249913 94.62337739 -14.64585876 71.70950317 C-17.28050299 66.43783969 -16.02810024 61.23582975 -14.63891602 55.72924805 C-14.19329063 53.93785652 -14.19329063 53.93785652 -13.73866272 52.11027527 C-13.41369308 50.84025162 -13.08872345 49.57022797 -12.75390625 48.26171875 C-12.41934465 46.93146404 -12.0854472 45.60104213 -11.75218201 44.27046204 C-11.05519173 41.49469338 -10.35289702 38.72034474 -9.64624023 35.94702148 C-8.73996195 32.39005801 -7.84297743 28.83083705 -6.94940281 25.27066326 C-6.09572314 21.87105155 -5.23750281 18.47259137 -4.37890625 15.07421875 C-4.21547792 14.42578192 -4.0520496 13.77734509 -3.8836689 13.10925865 C-3.42178254 11.28012977 -2.95621989 9.45193039 -2.49047852 7.6237793 C-2.22622574 6.5834404 -1.96197296 5.5431015 -1.68971252 4.47123718 C-1 2 -1 2 0 0 Z " fill="#BBCFDD" transform="translate(118,252)"/>
<path d="M0 0 C2.31 0 4.62 0 7 0 C7.11415676 28.7481889 7.20259666 57.49635097 7.25532665 86.24472206 C7.26157989 89.64166404 7.26805153 93.03860557 7.2746582 96.43554688 C7.27596976 97.11179332 7.27728131 97.78803977 7.2786326 98.48477854 C7.30036658 109.42268893 7.33977691 120.36046741 7.38576398 131.29829966 C7.43258473 142.52839892 7.45993317 153.75843249 7.47044247 164.98863423 C7.47695635 171.29362935 7.49224776 177.59832566 7.52865028 183.90322495 C7.56265374 189.84085948 7.57304392 195.77807286 7.56553841 201.71579552 C7.56691098 203.89179589 7.57681712 206.06781072 7.59602737 208.24372673 C7.7732958 229.3632429 7.7732958 229.3632429 2 237 C1.37738281 237.84175781 0.75476563 238.68351563 0.11328125 239.55078125 C-0.48097656 240.13214844 -1.07523437 240.71351563 -1.6875 241.3125 C-2.26886719 241.90675781 -2.85023438 242.50101563 -3.44921875 243.11328125 C-12.02401588 249.45574222 -19.05480298 250.69547815 -29.625 250.3125 C-31.41744141 250.27866211 -31.41744141 250.27866211 -33.24609375 250.24414062 C-36.16540989 250.1857543 -39.08201029 250.10391701 -42 250 C-42 247.69 -42 245.38 -42 243 C-40.44152344 242.96132813 -40.44152344 242.96132813 -38.8515625 242.921875 C-26.8855369 242.49508148 -17.99429346 240.80832338 -8.98046875 232.2890625 C-2.48508954 224.78158278 -0.8531509 216.952483 -0.84178162 207.31878662 C-0.83684364 206.43332161 -0.83190566 205.5478566 -0.82681805 204.63555932 C-0.81143702 201.66296593 -0.80308076 198.69039414 -0.79467773 195.71777344 C-0.78509969 193.58912973 -0.77508965 191.46048794 -0.76467896 189.33184814 C-0.73761587 183.5471577 -0.71661388 177.76245909 -0.69667697 171.97774029 C-0.6748261 165.93454686 -0.64743301 159.89137865 -0.62062073 153.84820557 C-0.57068169 142.40191194 -0.52574734 130.95560432 -0.48259836 119.5092833 C-0.43323635 106.47919204 -0.37831437 93.44912607 -0.32291877 80.41905928 C-0.20908013 53.61272979 -0.10224517 26.80637603 0 0 Z " fill="#BECDD7" transform="translate(453,210)"/>
<path d="M0 0 C2.64 1.32 5.28 2.64 8 4 C8 35.68 8 67.36 8 100 C-22.36 100 -52.72 100 -84 100 C-84 97.36 -84 94.72 -84 92 C-56.28 92 -28.56 92 0 92 C0 61.64 0 31.28 0 0 Z " fill="#C2D4E1" transform="translate(244,361)"/>
<path d="M0 0 C33 0 66 0 100 0 C100 2.64 100 5.28 100 8 C69.64 8 39.28 8 8 8 C8 16.25 8 24.5 8 33 C5.36 33 2.72 33 0 33 C0 22.11 0 11.22 0 0 Z " fill="#93B4CC" transform="translate(202,85)"/>
<path d="M0 0 C1.4509994 0.79360693 2.90050317 1.58994886 4.34936523 2.38745117 C5.15671616 2.8306218 5.96406708 3.27379242 6.79588318 3.73039246 C10.30498831 5.75169473 13.02241935 8.27583047 16 11 C15.34 11.33 14.68 11.66 14 12 C11.375 10.5625 11.375 10.5625 9 9 C8.99413376 9.66905869 8.98826752 10.33811737 8.98222351 11.02745056 C8.91806188 18.01995625 8.83358385 25.01201137 8.73754883 32.00415039 C8.70438874 34.61020958 8.67632935 37.21633904 8.65356445 39.82250977 C8.61985511 43.5785911 8.56752888 47.33403355 8.51171875 51.08984375 C8.50213387 52.82475319 8.50213387 52.82475319 8.49235535 54.5947113 C8.31834174 64.26904433 6.89647238 72.05191574 0.07421875 79.203125 C-5.95542894 84.42654861 -12.25929441 86.87774325 -20.25390625 86.4921875 C-26.72443395 85.33246276 -32.81505723 82.13606612 -37 77 C-36.505 76.01 -36.505 76.01 -36 75 C-35.21625 75.33 -34.4325 75.66 -33.625 76 C-26.16056687 78.05915397 -19.89342799 77.63610433 -12.96875 74.125 C-6.10454558 70.20259747 -3.44141796 65.32425387 -1 58 C-0.88356421 56.11408604 -0.82336539 54.22449218 -0.79467773 52.33520508 C-0.77473251 51.17422806 -0.75478729 50.01325104 -0.73423767 48.8170929 C-0.71752518 47.56389755 -0.70081268 46.31070221 -0.68359375 45.01953125 C-0.66281265 43.73640549 -0.64203156 42.45327972 -0.62062073 41.13127136 C-0.56548094 37.72337185 -0.51603611 34.31541259 -0.46777344 30.90740967 C-0.41749921 27.42845352 -0.36184409 23.94958393 -0.30664062 20.47070312 C-0.19915811 13.64721049 -0.09769123 6.82363964 0 0 Z " fill="#BED8EA" transform="translate(294,252)"/>
<path d="M0 0 C0 18.15 0 36.3 0 55 C-0.33 55 -0.66 55 -1 55 C-1 41.47 -1 27.94 -1 14 C-13.90113668 23.67585251 -21.89002907 35.55117153 -24.625 51.6875 C-26.09400168 65.80623833 -23.98001486 77.13625876 -17.109375 89.6015625 C-16.74328125 90.39304687 -16.3771875 91.18453125 -16 92 C-16.33 92.66 -16.66 93.32 -17 94 C-29.0243261 81.90257769 -33.83869069 67.73522454 -34.4375 50.875 C-33.98840251 33.5554576 -25.25251752 19.87043612 -13.11328125 8.18359375 C-3.98621554 0 -3.98621554 0 0 0 Z " fill="#BCD7EB" transform="translate(244,252)"/>
<path d="M0 0 C3.86948607 1.75124577 5.35421472 3.56124597 7.625 7.1875 C8.51058594 8.57001953 8.51058594 8.57001953 9.4140625 9.98046875 C12.43354367 15.72938241 13.24879814 21.01982466 13.1953125 27.46484375 C13.1924826 28.14301651 13.18965271 28.82118927 13.18673706 29.51991272 C13.17565416 31.65929766 13.1505736 33.7982443 13.125 35.9375 C13.11495476 37.39908244 13.10583163 38.86067153 13.09765625 40.32226562 C13.07575425 43.88164979 13.04130866 47.44078203 13 51 C10.36 51 7.72 51 5 51 C4.98598145 49.26882935 4.98598145 49.26882935 4.97167969 47.50268555 C4.93145519 43.17288254 4.86561031 38.84376611 4.79248047 34.5144043 C4.76445746 32.64958596 4.7431512 30.78465296 4.72900391 28.91967773 C4.68451075 14.02322755 4.68451075 14.02322755 0 0 Z " fill="#92B3CB" transform="translate(331,67)"/>
</svg>
